<svg xmlns="http://www.w3.org/2000/svg" viewBox="0 0 200 120" width="200" height="120">
  <rect x="10" y="10" width="180" height="100" rx="5" fill="#333" />
  <rect x="25" y="20" width="40" height="80" rx="3" fill="#444" />
  <rect x="75" y="20" width="100" height="80" rx="3" fill="#222" />
  
  <!-- Folder icon in sidebar -->
  <rect x="30" y="30" width="30" height="6" rx="1" fill="#777" />
  <rect x="30" y="40" width="30" height="6" rx="1" fill="#777" />
  <rect x="30" y="50" width="30" height="6" rx="1" fill="#777" />
  <rect x="30" y="60" width="30" height="6" rx="1" fill="#9c6fff" />
  
  <!-- File creation dialog -->
  <rect x="85" y="30" width="80" height="60" rx="3" fill="#444" />
  <rect x="95" y="40" width="60" height="8" rx="2" fill="#555" />
  <rect x="95" y="55" width="60" height="8" rx="2" fill="#666" />
  
  <!-- New file indicator -->
  <circle cx="145" cy="40" r="8" fill="#5448de" />
  <path d="M145 36 L145 44 M141 40 L149 40" stroke="white" stroke-width="2" />
  
  <rect x="95" y="70" width="25" height="10" rx="3" fill="#777" />
  <rect x="130" y="70" width="25" height="10" rx="3" fill="#9c6fff" />
</svg> 