<svg xmlns="http://www.w3.org/2000/svg" viewBox="0 0 200 120" width="200" height="120">
  <rect x="10" y="10" width="180" height="100" rx="5" fill="#333" />
  <rect x="25" y="25" width="150" height="70" rx="3" fill="#222" />
  
  <!-- Code editor content -->
  <rect x="35" y="35" width="130" height="5" rx="1" fill="#5448de" opacity="0.7" />
  <rect x="35" y="45" width="100" height="5" rx="1" fill="#888" />
  <rect x="45" y="55" width="110" height="5" rx="1" fill="#888" />
  <rect x="45" y="65" width="90" height="5" rx="1" fill="#888" />
  <rect x="35" y="75" width="70" height="5" rx="1" fill="#9c6fff" opacity="0.7" />
  
  <!-- Clipboard icon -->
  <rect x="150" y="15" width="30" height="30" rx="5" fill="#5448de" />
  <rect x="157" y="22" width="15" height="18" rx="2" fill="white" opacity="0.9" />
  <rect x="160" y="26" width="10" height="2" rx="1" fill="#5448de" />
  <rect x="160" y="30" width="10" height="2" rx="1" fill="#5448de" />
  <rect x="160" y="34" width="7" height="2" rx="1" fill="#5448de" />
  
  <!-- Paste animation -->
  <path d="M150 40 L135 55 L125 60" stroke="#9c6fff" stroke-width="2" stroke-dasharray="4 2" fill="none" />
  <path d="M125 60 L120 65 L125 70 L130 65 Z" fill="#9c6fff" />
</svg> 