<svg xmlns="http://www.w3.org/2000/svg" viewBox="0 0 200 120" width="200" height="120">
  <rect x="10" y="10" width="180" height="100" rx="5" fill="#333" />
  
  <!-- Theme editor interface -->
  <rect x="20" y="25" width="120" height="75" rx="3" fill="#222" />
  <rect x="150" y="25" width="30" height="75" rx="3" fill="#444" />
  
  <!-- Page content in editor -->
  <rect x="30" y="35" width="100" height="10" rx="2" fill="#444" />
  <rect x="30" y="50" width="100" height="10" rx="2" fill="#444" />
  <rect x="30" y="65" width="100" height="10" rx="2" fill="#9c6fff" opacity="0.7" />
  <rect x="30" y="80" width="100" height="10" rx="2" fill="#444" />
  
  <!-- Section selector panel -->
  <rect x="155" y="35" width="20" height="55" rx="2" fill="#333" />
  <circle cx="165" cy="45" r="6" fill="#5448de" />
  <path d="M165 42 L165 48 M162 45 L168 45" stroke="white" stroke-width="1.5" />
  
  <!-- Section blocks -->
  <rect x="157" y="55" width="16" height="5" rx="1" fill="#666" />
  <rect x="157" y="65" width="16" height="5" rx="1" fill="#666" />
  <rect x="157" y="75" width="16" height="5" rx="1" fill="#9c6fff" />
  
  <!-- Animation connecting panel to content -->
  <path d="M157 75 L130 75 L130 70" stroke="#9c6fff" stroke-width="2" stroke-dasharray="4 2" fill="none" />
  <path d="M130 70 L125 65 L130 60 L135 65 Z" fill="#9c6fff" />
</svg> 